<svg width="289" height="151" viewBox="0 0 289 151" fill="none" xmlns="http://www.w3.org/2000/svg">
<g clip-path="url(#clip0_1_2314)">
<rect width="289" height="151" rx="12" fill="#032282"/>
<rect opacity="0.2" width="50.9777" height="82.7358" rx="2" transform="matrix(0.881831 -0.471566 0.331852 0.943332 174.23 -2.84094)" fill="url(#paint0_linear_1_2314)"/>
<g opacity="0.1" filter="url(#filter0_d_1_2314)">
<rect width="50.9521" height="109.9" rx="2" transform="matrix(-0.883373 0.468671 -0.329523 -0.944148 246.224 30.7614)" fill="url(#paint1_linear_1_2314)" shape-rendering="crispEdges"/>
</g>
<g opacity="0.1" filter="url(#filter1_d_1_2314)">
<rect width="50.9521" height="54.1297" rx="2" transform="matrix(-0.883373 0.468671 -0.329523 -0.944148 177.847 28.1063)" fill="url(#paint2_linear_1_2314)" shape-rendering="crispEdges"/>
</g>
<g opacity="0.1" filter="url(#filter2_d_1_2314)">
<rect width="50.9521" height="54.1297" rx="2" transform="matrix(-0.883373 0.468671 -0.329523 -0.944148 284.847 135.105)" fill="url(#paint3_linear_1_2314)" shape-rendering="crispEdges"/>
</g>
<rect x="24" y="87" width="112" height="40" rx="7" fill="white" fill-opacity="0.15"/>
<path d="M52.092 112.098C51.9053 112.098 51.756 112.056 51.644 111.972C51.532 111.888 51.4667 111.776 51.448 111.636C51.4293 111.496 51.4573 111.337 51.532 111.16L55.326 102.648C55.4193 102.424 55.536 102.265 55.676 102.172C55.8253 102.079 55.9887 102.032 56.166 102.032C56.334 102.032 56.488 102.079 56.628 102.172C56.7773 102.265 56.8987 102.424 56.992 102.648L60.786 111.16C60.87 111.337 60.9027 111.501 60.884 111.65C60.8653 111.79 60.8047 111.902 60.702 111.986C60.5993 112.061 60.4547 112.098 60.268 112.098C60.0627 112.098 59.8993 112.047 59.778 111.944C59.6567 111.841 59.5493 111.683 59.456 111.468L58.476 109.2L59.134 109.592H53.17L53.814 109.2L52.848 111.468C52.7547 111.692 52.652 111.855 52.54 111.958C52.428 112.051 52.2787 112.098 52.092 112.098ZM56.138 103.74L54.024 108.752L53.674 108.416H58.616L58.294 108.752L56.166 103.74H56.138ZM64.5982 112.126C64.0009 112.126 63.4736 111.986 63.0162 111.706C62.5682 111.417 62.2182 111.006 61.9662 110.474C61.7142 109.933 61.5882 109.303 61.5882 108.584C61.5882 107.847 61.7142 107.217 61.9662 106.694C62.2182 106.171 62.5682 105.765 63.0162 105.476C63.4736 105.187 64.0009 105.042 64.5982 105.042C65.1956 105.042 65.7089 105.191 66.1382 105.49C66.5769 105.779 66.8709 106.171 67.0202 106.666H66.8662V102.746C66.8662 102.513 66.9269 102.335 67.0482 102.214C67.1696 102.093 67.3422 102.032 67.5662 102.032C67.7902 102.032 67.9629 102.093 68.0842 102.214C68.2149 102.335 68.2802 102.513 68.2802 102.746V111.384C68.2802 111.608 68.2196 111.785 68.0982 111.916C67.9769 112.037 67.8042 112.098 67.5802 112.098C67.3562 112.098 67.1836 112.037 67.0622 111.916C66.9409 111.785 66.8802 111.608 66.8802 111.384V110.152L67.0342 110.46C66.8849 110.964 66.5909 111.37 66.1522 111.678C65.7229 111.977 65.2049 112.126 64.5982 112.126ZM64.9622 111.034C65.3449 111.034 65.6809 110.941 65.9702 110.754C66.2596 110.567 66.4836 110.292 66.6422 109.928C66.8102 109.564 66.8942 109.116 66.8942 108.584C66.8942 107.781 66.7169 107.175 66.3622 106.764C66.0076 106.353 65.5409 106.148 64.9622 106.148C64.5702 106.148 64.2296 106.241 63.9402 106.428C63.6509 106.605 63.4222 106.876 63.2542 107.24C63.0956 107.604 63.0162 108.052 63.0162 108.584C63.0162 109.377 63.1936 109.984 63.5482 110.404C63.9029 110.824 64.3742 111.034 64.9622 111.034ZM72.6297 112.126C72.0324 112.126 71.5051 111.986 71.0477 111.706C70.5997 111.417 70.2497 111.006 69.9977 110.474C69.7457 109.933 69.6197 109.303 69.6197 108.584C69.6197 107.847 69.7457 107.217 69.9977 106.694C70.2497 106.171 70.5997 105.765 71.0477 105.476C71.5051 105.187 72.0324 105.042 72.6297 105.042C73.2271 105.042 73.7404 105.191 74.1697 105.49C74.6084 105.779 74.9024 106.171 75.0517 106.666H74.8977V102.746C74.8977 102.513 74.9584 102.335 75.0797 102.214C75.2011 102.093 75.3737 102.032 75.5977 102.032C75.8217 102.032 75.9944 102.093 76.1157 102.214C76.2464 102.335 76.3117 102.513 76.3117 102.746V111.384C76.3117 111.608 76.2511 111.785 76.1297 111.916C76.0084 112.037 75.8357 112.098 75.6117 112.098C75.3877 112.098 75.2151 112.037 75.0937 111.916C74.9724 111.785 74.9117 111.608 74.9117 111.384V110.152L75.0657 110.46C74.9164 110.964 74.6224 111.37 74.1837 111.678C73.7544 111.977 73.2364 112.126 72.6297 112.126ZM72.9937 111.034C73.3764 111.034 73.7124 110.941 74.0017 110.754C74.2911 110.567 74.5151 110.292 74.6737 109.928C74.8417 109.564 74.9257 109.116 74.9257 108.584C74.9257 107.781 74.7484 107.175 74.3937 106.764C74.0391 106.353 73.5724 106.148 72.9937 106.148C72.6017 106.148 72.2611 106.241 71.9717 106.428C71.6824 106.605 71.4537 106.876 71.2857 107.24C71.1271 107.604 71.0477 108.052 71.0477 108.584C71.0477 109.377 71.2251 109.984 71.5797 110.404C71.9344 110.824 72.4057 111.034 72.9937 111.034ZM82.6286 112.098C82.4046 112.098 82.2273 112.037 82.0966 111.916C81.9753 111.785 81.9146 111.608 81.9146 111.384V106.26H81.1306C80.9533 106.26 80.8133 106.213 80.7106 106.12C80.6079 106.017 80.5566 105.882 80.5566 105.714C80.5566 105.537 80.6079 105.401 80.7106 105.308C80.8133 105.215 80.9533 105.168 81.1306 105.168H82.3206L81.9146 105.546V105.042C81.9146 104.118 82.1433 103.423 82.6006 102.956C83.0579 102.48 83.7253 102.2 84.6026 102.116L85.0366 102.088C85.1953 102.069 85.3213 102.093 85.4146 102.158C85.5079 102.223 85.5686 102.307 85.5966 102.41C85.6246 102.513 85.6246 102.62 85.5966 102.732C85.5779 102.835 85.5313 102.928 85.4566 103.012C85.3819 103.096 85.2886 103.143 85.1766 103.152L84.9106 103.166C84.3599 103.213 83.9586 103.371 83.7066 103.642C83.4546 103.903 83.3286 104.305 83.3286 104.846V105.392L83.1326 105.168H84.6866C84.8826 105.168 85.0273 105.215 85.1206 105.308C85.2233 105.401 85.2746 105.537 85.2746 105.714C85.2746 105.882 85.2233 106.017 85.1206 106.12C85.0273 106.213 84.8826 106.26 84.6866 106.26H83.3286V111.384C83.3286 111.86 83.0953 112.098 82.6286 112.098ZM88.5581 112.126C88.0075 112.126 87.5455 112.023 87.1721 111.818C86.8081 111.613 86.5328 111.309 86.3461 110.908C86.1688 110.497 86.0801 109.984 86.0801 109.368V105.784C86.0801 105.541 86.1408 105.364 86.2621 105.252C86.3835 105.131 86.5561 105.07 86.7801 105.07C87.0041 105.07 87.1768 105.131 87.2981 105.252C87.4288 105.364 87.4941 105.541 87.4941 105.784V109.382C87.4941 109.933 87.6061 110.339 87.8301 110.6C88.0541 110.861 88.4088 110.992 88.8941 110.992C89.4261 110.992 89.8555 110.815 90.1821 110.46C90.5181 110.096 90.6861 109.62 90.6861 109.032V105.784C90.6861 105.541 90.7468 105.364 90.8681 105.252C90.9895 105.131 91.1668 105.07 91.4001 105.07C91.6241 105.07 91.7968 105.131 91.9181 105.252C92.0395 105.364 92.1001 105.541 92.1001 105.784V111.384C92.1001 111.86 91.8715 112.098 91.4141 112.098C91.1995 112.098 91.0315 112.037 90.9101 111.916C90.7888 111.785 90.7281 111.608 90.7281 111.384V110.194L90.9101 110.502C90.7235 111.025 90.4248 111.426 90.0141 111.706C89.6035 111.986 89.1181 112.126 88.5581 112.126ZM94.5528 112.098C94.3288 112.098 94.1562 112.037 94.0348 111.916C93.9135 111.785 93.8528 111.608 93.8528 111.384V105.784C93.8528 105.551 93.9135 105.373 94.0348 105.252C94.1562 105.131 94.3242 105.07 94.5388 105.07C94.7628 105.07 94.9308 105.131 95.0428 105.252C95.1642 105.373 95.2248 105.551 95.2248 105.784V106.876L95.0708 106.624C95.2762 106.101 95.5982 105.709 96.0368 105.448C96.4755 105.177 96.9795 105.042 97.5488 105.042C98.0902 105.042 98.5382 105.145 98.8928 105.35C99.2568 105.546 99.5275 105.849 99.7048 106.26C99.8822 106.661 99.9708 107.17 99.9708 107.786V111.384C99.9708 111.608 99.9102 111.785 99.7888 111.916C99.6675 112.037 99.4948 112.098 99.2708 112.098C99.0375 112.098 98.8602 112.037 98.7388 111.916C98.6175 111.785 98.5568 111.608 98.5568 111.384V107.87C98.5568 107.282 98.4402 106.853 98.2068 106.582C97.9828 106.311 97.6282 106.176 97.1428 106.176C96.5735 106.176 96.1162 106.353 95.7708 106.708C95.4348 107.063 95.2668 107.539 95.2668 108.136V111.384C95.2668 111.86 95.0288 112.098 94.5528 112.098ZM104.283 112.126C103.686 112.126 103.159 111.986 102.701 111.706C102.253 111.417 101.903 111.006 101.651 110.474C101.399 109.933 101.273 109.303 101.273 108.584C101.273 107.847 101.399 107.217 101.651 106.694C101.903 106.171 102.253 105.765 102.701 105.476C103.159 105.187 103.686 105.042 104.283 105.042C104.881 105.042 105.394 105.191 105.823 105.49C106.262 105.779 106.556 106.171 106.705 106.666H106.551V102.746C106.551 102.513 106.612 102.335 106.733 102.214C106.855 102.093 107.027 102.032 107.251 102.032C107.475 102.032 107.648 102.093 107.769 102.214C107.9 102.335 107.965 102.513 107.965 102.746V111.384C107.965 111.608 107.905 111.785 107.783 111.916C107.662 112.037 107.489 112.098 107.265 112.098C107.041 112.098 106.869 112.037 106.747 111.916C106.626 111.785 106.565 111.608 106.565 111.384V110.152L106.719 110.46C106.57 110.964 106.276 111.37 105.837 111.678C105.408 111.977 104.89 112.126 104.283 112.126ZM104.647 111.034C105.03 111.034 105.366 110.941 105.655 110.754C105.945 110.567 106.169 110.292 106.327 109.928C106.495 109.564 106.579 109.116 106.579 108.584C106.579 107.781 106.402 107.175 106.047 106.764C105.693 106.353 105.226 106.148 104.647 106.148C104.255 106.148 103.915 106.241 103.625 106.428C103.336 106.605 103.107 106.876 102.939 107.24C102.781 107.604 102.701 108.052 102.701 108.584C102.701 109.377 102.879 109.984 103.233 110.404C103.588 110.824 104.059 111.034 104.647 111.034Z" fill="white"/>
<rect x="153" y="87" width="112" height="40" rx="7" fill="white" fill-opacity="0.15"/>
<path d="M181.466 112.098C181.261 112.098 181.093 112.047 180.962 111.944C180.841 111.841 180.738 111.683 180.654 111.468L177.644 102.886C177.56 102.643 177.574 102.443 177.686 102.284C177.807 102.116 178.003 102.032 178.274 102.032C178.479 102.032 178.638 102.079 178.75 102.172C178.871 102.265 178.965 102.415 179.03 102.62L181.76 110.656H181.242L184.042 102.648C184.126 102.443 184.224 102.289 184.336 102.186C184.448 102.083 184.597 102.032 184.784 102.032C184.971 102.032 185.115 102.083 185.218 102.186C185.33 102.289 185.428 102.447 185.512 102.662L188.256 110.656H187.794L190.552 102.62C190.617 102.424 190.706 102.279 190.818 102.186C190.939 102.083 191.098 102.032 191.294 102.032C191.537 102.032 191.714 102.116 191.826 102.284C191.947 102.443 191.961 102.643 191.868 102.886L188.844 111.482C188.76 111.687 188.657 111.841 188.536 111.944C188.415 112.047 188.251 112.098 188.046 112.098C187.831 112.098 187.663 112.047 187.542 111.944C187.421 111.841 187.323 111.683 187.248 111.468L184.602 103.894H184.91L182.236 111.482C182.161 111.687 182.063 111.841 181.942 111.944C181.83 112.047 181.671 112.098 181.466 112.098ZM194.45 112.084C194.226 112.084 194.053 112.019 193.932 111.888C193.811 111.748 193.75 111.557 193.75 111.314V105.854C193.75 105.611 193.811 105.425 193.932 105.294C194.053 105.163 194.226 105.098 194.45 105.098C194.674 105.098 194.847 105.163 194.968 105.294C195.099 105.425 195.164 105.611 195.164 105.854V111.314C195.164 111.557 195.103 111.748 194.982 111.888C194.861 112.019 194.683 112.084 194.45 112.084ZM194.45 103.642C194.17 103.642 193.951 103.572 193.792 103.432C193.643 103.292 193.568 103.096 193.568 102.844C193.568 102.583 193.643 102.387 193.792 102.256C193.951 102.116 194.17 102.046 194.45 102.046C194.73 102.046 194.945 102.116 195.094 102.256C195.253 102.387 195.332 102.583 195.332 102.844C195.332 103.096 195.253 103.292 195.094 103.432C194.945 103.572 194.73 103.642 194.45 103.642ZM199.826 112.126C199.266 112.126 198.795 112.028 198.412 111.832C198.03 111.636 197.745 111.347 197.558 110.964C197.372 110.581 197.278 110.115 197.278 109.564V106.26H196.438C196.252 106.26 196.107 106.213 196.004 106.12C195.902 106.017 195.85 105.882 195.85 105.714C195.85 105.537 195.902 105.401 196.004 105.308C196.107 105.215 196.252 105.168 196.438 105.168H197.278V103.726C197.278 103.493 197.339 103.315 197.46 103.194C197.591 103.073 197.768 103.012 197.992 103.012C198.216 103.012 198.389 103.073 198.51 103.194C198.632 103.315 198.692 103.493 198.692 103.726V105.168H200.33C200.517 105.168 200.662 105.215 200.764 105.308C200.867 105.401 200.918 105.537 200.918 105.714C200.918 105.882 200.867 106.017 200.764 106.12C200.662 106.213 200.517 106.26 200.33 106.26H198.692V109.452C198.692 109.947 198.795 110.32 199 110.572C199.215 110.824 199.56 110.95 200.036 110.95C200.204 110.95 200.349 110.936 200.47 110.908C200.601 110.871 200.708 110.847 200.792 110.838C200.895 110.838 200.979 110.875 201.044 110.95C201.11 111.015 201.142 111.146 201.142 111.342C201.142 111.482 201.114 111.613 201.058 111.734C201.012 111.855 200.923 111.935 200.792 111.972C200.68 112.009 200.526 112.042 200.33 112.07C200.144 112.107 199.976 112.126 199.826 112.126ZM202.611 112.098C202.387 112.098 202.214 112.037 202.093 111.916C201.971 111.785 201.911 111.608 201.911 111.384V102.746C201.911 102.513 201.971 102.335 202.093 102.214C202.214 102.093 202.387 102.032 202.611 102.032C202.835 102.032 203.007 102.093 203.129 102.214C203.259 102.335 203.325 102.513 203.325 102.746V106.624H203.129C203.334 106.101 203.656 105.709 204.095 105.448C204.533 105.177 205.037 105.042 205.607 105.042C206.148 105.042 206.596 105.145 206.951 105.35C207.315 105.546 207.585 105.849 207.763 106.26C207.94 106.661 208.029 107.17 208.029 107.786V111.384C208.029 111.608 207.968 111.785 207.847 111.916C207.725 112.037 207.553 112.098 207.329 112.098C207.095 112.098 206.918 112.037 206.797 111.916C206.675 111.785 206.615 111.608 206.615 111.384V107.87C206.615 107.282 206.498 106.853 206.265 106.582C206.041 106.311 205.686 106.176 205.201 106.176C204.631 106.176 204.174 106.353 203.829 106.708C203.493 107.063 203.325 107.539 203.325 108.136V111.384C203.325 111.86 203.087 112.098 202.611 112.098ZM212.341 112.126C211.744 112.126 211.216 111.986 210.759 111.706C210.311 111.417 209.961 111.006 209.709 110.474C209.457 109.933 209.331 109.303 209.331 108.584C209.331 107.847 209.457 107.217 209.709 106.694C209.961 106.171 210.311 105.765 210.759 105.476C211.216 105.187 211.744 105.042 212.341 105.042C212.938 105.042 213.452 105.191 213.881 105.49C214.32 105.779 214.614 106.171 214.763 106.666H214.609V102.746C214.609 102.513 214.67 102.335 214.791 102.214C214.912 102.093 215.085 102.032 215.309 102.032C215.533 102.032 215.706 102.093 215.827 102.214C215.958 102.335 216.023 102.513 216.023 102.746V111.384C216.023 111.608 215.962 111.785 215.841 111.916C215.72 112.037 215.547 112.098 215.323 112.098C215.099 112.098 214.926 112.037 214.805 111.916C214.684 111.785 214.623 111.608 214.623 111.384V110.152L214.777 110.46C214.628 110.964 214.334 111.37 213.895 111.678C213.466 111.977 212.948 112.126 212.341 112.126ZM212.705 111.034C213.088 111.034 213.424 110.941 213.713 110.754C214.002 110.567 214.226 110.292 214.385 109.928C214.553 109.564 214.637 109.116 214.637 108.584C214.637 107.781 214.46 107.175 214.105 106.764C213.75 106.353 213.284 106.148 212.705 106.148C212.313 106.148 211.972 106.241 211.683 106.428C211.394 106.605 211.165 106.876 210.997 107.24C210.838 107.604 210.759 108.052 210.759 108.584C210.759 109.377 210.936 109.984 211.291 110.404C211.646 110.824 212.117 111.034 212.705 111.034ZM218.483 112.098C218.249 112.098 218.072 112.037 217.951 111.916C217.829 111.785 217.769 111.608 217.769 111.384V105.784C217.769 105.551 217.829 105.373 217.951 105.252C218.072 105.131 218.24 105.07 218.455 105.07C218.679 105.07 218.847 105.131 218.959 105.252C219.08 105.373 219.141 105.551 219.141 105.784V106.806H219.001C219.15 106.246 219.425 105.821 219.827 105.532C220.228 105.243 220.741 105.075 221.367 105.028C221.535 105.019 221.665 105.061 221.759 105.154C221.861 105.247 221.917 105.392 221.927 105.588C221.945 105.784 221.903 105.943 221.801 106.064C221.698 106.176 221.539 106.241 221.325 106.26L221.059 106.288C220.452 106.344 219.99 106.535 219.673 106.862C219.355 107.189 219.197 107.637 219.197 108.206V111.384C219.197 111.608 219.136 111.785 219.015 111.916C218.903 112.037 218.725 112.098 218.483 112.098ZM224.867 112.126C224.391 112.126 223.962 112.033 223.579 111.846C223.206 111.659 222.912 111.407 222.697 111.09C222.482 110.773 222.375 110.413 222.375 110.012C222.375 109.508 222.501 109.111 222.753 108.822C223.014 108.523 223.439 108.313 224.027 108.192C224.624 108.061 225.427 107.996 226.435 107.996H227.093V108.864H226.449C225.777 108.864 225.245 108.897 224.853 108.962C224.461 109.027 224.181 109.139 224.013 109.298C223.854 109.447 223.775 109.657 223.775 109.928C223.775 110.283 223.896 110.572 224.139 110.796C224.382 111.011 224.718 111.118 225.147 111.118C225.492 111.118 225.796 111.039 226.057 110.88C226.318 110.712 226.524 110.488 226.673 110.208C226.832 109.928 226.911 109.606 226.911 109.242V107.632C226.911 107.1 226.799 106.717 226.575 106.484C226.351 106.251 225.982 106.134 225.469 106.134C225.17 106.134 224.858 106.171 224.531 106.246C224.214 106.321 223.882 106.447 223.537 106.624C223.378 106.699 223.243 106.722 223.131 106.694C223.019 106.666 222.93 106.605 222.865 106.512C222.8 106.409 222.762 106.302 222.753 106.19C222.753 106.069 222.781 105.952 222.837 105.84C222.902 105.728 223.01 105.644 223.159 105.588C223.57 105.392 223.976 105.252 224.377 105.168C224.778 105.084 225.156 105.042 225.511 105.042C226.136 105.042 226.65 105.14 227.051 105.336C227.462 105.532 227.765 105.831 227.961 106.232C228.157 106.633 228.255 107.151 228.255 107.786V111.384C228.255 111.608 228.199 111.785 228.087 111.916C227.975 112.037 227.812 112.098 227.597 112.098C227.392 112.098 227.228 112.037 227.107 111.916C226.986 111.785 226.925 111.608 226.925 111.384V110.474H227.051C226.976 110.819 226.836 111.118 226.631 111.37C226.435 111.613 226.188 111.799 225.889 111.93C225.59 112.061 225.25 112.126 224.867 112.126ZM232.386 112.098C232.19 112.098 232.017 112.051 231.868 111.958C231.728 111.855 231.616 111.697 231.532 111.482L229.474 106.036C229.399 105.849 229.376 105.686 229.404 105.546C229.432 105.397 229.502 105.28 229.614 105.196C229.735 105.112 229.889 105.07 230.076 105.07C230.244 105.07 230.379 105.112 230.482 105.196C230.594 105.271 230.687 105.42 230.762 105.644L232.596 110.81H232.26L234.164 105.588C234.229 105.411 234.318 105.28 234.43 105.196C234.542 105.112 234.687 105.07 234.864 105.07C235.041 105.07 235.186 105.112 235.298 105.196C235.419 105.28 235.508 105.411 235.564 105.588L237.426 110.81H237.118L238.98 105.616C239.055 105.401 239.148 105.257 239.26 105.182C239.381 105.107 239.517 105.07 239.666 105.07C239.853 105.07 239.993 105.117 240.086 105.21C240.189 105.303 240.245 105.425 240.254 105.574C240.273 105.714 240.249 105.868 240.184 106.036L238.126 111.482C238.042 111.687 237.925 111.841 237.776 111.944C237.636 112.047 237.473 112.098 237.286 112.098C237.09 112.098 236.917 112.047 236.768 111.944C236.628 111.841 236.516 111.687 236.432 111.482L234.472 106.176H235.172L233.226 111.482C233.151 111.687 233.039 111.841 232.89 111.944C232.75 112.047 232.582 112.098 232.386 112.098Z" fill="white"/>
<path d="M176 62.33C173.61 62.33 171.67 60.39 171.67 58C171.67 55.61 173.61 53.67 176 53.67C178.39 53.67 180.33 55.61 180.33 58C180.33 60.39 178.39 62.33 176 62.33ZM176 55.17C174.44 55.17 173.17 56.44 173.17 58C173.17 59.56 174.44 60.83 176 60.83C177.56 60.83 178.83 59.56 178.83 58C178.83 56.44 177.56 55.17 176 55.17Z" fill="white"/>
<path d="M176 67.02C172.24 67.02 168.69 64.82 166.25 61C165.19 59.35 165.19 56.66 166.25 55C168.7 51.18 172.25 48.98 176 48.98C179.75 48.98 183.3 51.18 185.74 55C186.8 56.65 186.8 59.34 185.74 61C183.3 64.82 179.75 67.02 176 67.02ZM176 50.48C172.77 50.48 169.68 52.42 167.52 55.81C166.77 56.98 166.77 59.02 167.52 60.19C169.68 63.58 172.77 65.52 176 65.52C179.23 65.52 182.32 63.58 184.48 60.19C185.23 59.02 185.23 56.98 184.48 55.81C182.32 52.42 179.23 50.48 176 50.48Z" fill="white"/>
<path d="M25.36 63V58.06H24.2V56.58H25.36V55.14H24.2V53.66H25.36V48.72H28.5L30.06 53.66H31.88V48.72H34.1V53.66H35.24V55.14H34.1V56.58H35.24V58.06H34.1V63H30.94L29.34 58.06H27.58V63H25.36ZM27.58 56.58H28.9L28.46 55.14H27.54L27.58 56.58ZM31.94 59.88H32.04L31.96 58.06H31.42L31.94 59.88ZM27.5 53.66H28.06L27.48 51.74H27.4L27.5 53.66ZM31 56.58H31.92L31.88 55.14H30.54L31 56.58ZM41.9053 63.38C40.7586 63.38 39.772 63.1533 38.9453 62.7C38.132 62.2467 37.5053 61.6467 37.0653 60.9C36.6386 60.14 36.4253 59.3133 36.4253 58.42H39.1653C39.1653 58.9267 39.2786 59.3733 39.5053 59.76C39.7453 60.1467 40.072 60.4533 40.4853 60.68C40.8986 60.8933 41.3786 61 41.9253 61C42.4986 61 42.992 60.88 43.4053 60.64C43.8186 60.4 44.132 60.0733 44.3453 59.66C44.572 59.2467 44.6853 58.7733 44.6853 58.24C44.6853 57.72 44.572 57.2533 44.3453 56.84C44.132 56.4133 43.8186 56.08 43.4053 55.84C43.0053 55.5867 42.5186 55.46 41.9453 55.46C41.4653 55.46 41.012 55.5533 40.5853 55.74C40.1586 55.9267 39.8253 56.1733 39.5853 56.48H36.9653L37.7053 48.4H46.1653V50.82H38.9453L39.9453 50.04L39.4653 55.08L38.7853 54.88C39.172 54.44 39.6453 54.0733 40.2053 53.78C40.7653 53.4867 41.472 53.34 42.3253 53.34C43.4053 53.34 44.3253 53.56 45.0853 54C45.8453 54.44 46.4253 55.0267 46.8253 55.76C47.2253 56.48 47.4253 57.2667 47.4253 58.12V58.38C47.4253 59.2467 47.212 60.06 46.7853 60.82C46.3586 61.58 45.732 62.2 44.9053 62.68C44.092 63.1467 43.092 63.38 41.9053 63.38ZM55.7597 63.38C54.613 63.38 53.6397 63.1933 52.8397 62.82C52.0397 62.4333 51.3864 61.9133 50.8797 61.26C50.373 60.5933 49.9997 59.8333 49.7597 58.98C49.533 58.1133 49.4197 57.2067 49.4197 56.26V55.14C49.4197 53.7933 49.6464 52.58 50.0997 51.5C50.553 50.42 51.2464 49.5667 52.1797 48.94C53.113 48.3 54.3064 47.98 55.7597 47.98C57.1997 47.98 58.3864 48.3 59.3197 48.94C60.253 49.5667 60.9397 50.42 61.3797 51.5C61.833 52.58 62.0597 53.7933 62.0597 55.14V56.26C62.0597 57.2067 61.9397 58.1133 61.6997 58.98C61.473 59.8333 61.1064 60.5933 60.5997 61.26C60.1064 61.9133 59.4597 62.4333 58.6597 62.82C57.8597 63.1933 56.893 63.38 55.7597 63.38ZM55.7597 60.78C56.9464 60.78 57.8197 60.3733 58.3797 59.56C58.9397 58.7333 59.2197 57.4533 59.2197 55.72C59.2197 53.88 58.933 52.5667 58.3597 51.78C57.7864 50.98 56.9197 50.58 55.7597 50.58C54.5864 50.58 53.7064 50.98 53.1197 51.78C52.5464 52.5667 52.2597 53.8667 52.2597 55.68C52.2597 57.4267 52.5464 58.7133 53.1197 59.54C53.693 60.3667 54.573 60.78 55.7597 60.78ZM65.7169 66.32L63.5569 65.5L65.5969 59.7L67.9169 60.56L65.7169 66.32ZM76.248 63.38C75.1013 63.38 74.128 63.1933 73.328 62.82C72.528 62.4333 71.8746 61.9133 71.368 61.26C70.8613 60.5933 70.488 59.8333 70.248 58.98C70.0213 58.1133 69.908 57.2067 69.908 56.26V55.14C69.908 53.7933 70.1346 52.58 70.588 51.5C71.0413 50.42 71.7346 49.5667 72.668 48.94C73.6013 48.3 74.7946 47.98 76.248 47.98C77.688 47.98 78.8746 48.3 79.808 48.94C80.7413 49.5667 81.428 50.42 81.868 51.5C82.3213 52.58 82.548 53.7933 82.548 55.14V56.26C82.548 57.2067 82.428 58.1133 82.188 58.98C81.9613 59.8333 81.5946 60.5933 81.088 61.26C80.5946 61.9133 79.948 62.4333 79.148 62.82C78.348 63.1933 77.3813 63.38 76.248 63.38ZM76.248 60.78C77.4346 60.78 78.308 60.3733 78.868 59.56C79.428 58.7333 79.708 57.4533 79.708 55.72C79.708 53.88 79.4213 52.5667 78.848 51.78C78.2746 50.98 77.408 50.58 76.248 50.58C75.0746 50.58 74.1946 50.98 73.608 51.78C73.0346 52.5667 72.748 53.8667 72.748 55.68C72.748 57.4267 73.0346 58.7133 73.608 59.54C74.1813 60.3667 75.0613 60.78 76.248 60.78ZM91.3652 63.38C90.2185 63.38 89.2452 63.1933 88.4452 62.82C87.6452 62.4333 86.9918 61.9133 86.4852 61.26C85.9785 60.5933 85.6052 59.8333 85.3652 58.98C85.1385 58.1133 85.0252 57.2067 85.0252 56.26V55.14C85.0252 53.7933 85.2518 52.58 85.7052 51.5C86.1585 50.42 86.8518 49.5667 87.7852 48.94C88.7185 48.3 89.9118 47.98 91.3652 47.98C92.8052 47.98 93.9918 48.3 94.9252 48.94C95.8585 49.5667 96.5452 50.42 96.9852 51.5C97.4385 52.58 97.6652 53.7933 97.6652 55.14V56.26C97.6652 57.2067 97.5452 58.1133 97.3052 58.98C97.0785 59.8333 96.7118 60.5933 96.2052 61.26C95.7118 61.9133 95.0652 62.4333 94.2652 62.82C93.4652 63.1933 92.4985 63.38 91.3652 63.38ZM91.3652 60.78C92.5518 60.78 93.4252 60.3733 93.9852 59.56C94.5452 58.7333 94.8252 57.4533 94.8252 55.72C94.8252 53.88 94.5385 52.5667 93.9652 51.78C93.3918 50.98 92.5252 50.58 91.3652 50.58C90.1918 50.58 89.3118 50.98 88.7252 51.78C88.1518 52.5667 87.8652 53.8667 87.8652 55.68C87.8652 57.4267 88.1518 58.7133 88.7252 59.54C89.2985 60.3667 90.1785 60.78 91.3652 60.78ZM106.482 63.38C105.336 63.38 104.362 63.1933 103.562 62.82C102.762 62.4333 102.109 61.9133 101.602 61.26C101.096 60.5933 100.722 59.8333 100.482 58.98C100.256 58.1133 100.142 57.2067 100.142 56.26V55.14C100.142 53.7933 100.369 52.58 100.822 51.5C101.276 50.42 101.969 49.5667 102.902 48.94C103.836 48.3 105.029 47.98 106.482 47.98C107.922 47.98 109.109 48.3 110.042 48.94C110.976 49.5667 111.662 50.42 112.102 51.5C112.556 52.58 112.782 53.7933 112.782 55.14V56.26C112.782 57.2067 112.662 58.1133 112.422 58.98C112.196 59.8333 111.829 60.5933 111.322 61.26C110.829 61.9133 110.182 62.4333 109.382 62.82C108.582 63.1933 107.616 63.38 106.482 63.38ZM106.482 60.78C107.669 60.78 108.542 60.3733 109.102 59.56C109.662 58.7333 109.942 57.4533 109.942 55.72C109.942 53.88 109.656 52.5667 109.082 51.78C108.509 50.98 107.642 50.58 106.482 50.58C105.309 50.58 104.429 50.98 103.842 51.78C103.269 52.5667 102.982 53.8667 102.982 55.68C102.982 57.4267 103.269 58.7133 103.842 59.54C104.416 60.3667 105.296 60.78 106.482 60.78ZM115.16 63V59.8H118.28V63H115.16ZM126.971 63.38C125.824 63.38 124.851 63.1933 124.051 62.82C123.251 62.4333 122.597 61.9133 122.091 61.26C121.584 60.5933 121.211 59.8333 120.971 58.98C120.744 58.1133 120.631 57.2067 120.631 56.26V55.14C120.631 53.7933 120.857 52.58 121.311 51.5C121.764 50.42 122.457 49.5667 123.391 48.94C124.324 48.3 125.517 47.98 126.971 47.98C128.411 47.98 129.597 48.3 130.531 48.94C131.464 49.5667 132.151 50.42 132.591 51.5C133.044 52.58 133.271 53.7933 133.271 55.14V56.26C133.271 57.2067 133.151 58.1133 132.911 58.98C132.684 59.8333 132.317 60.5933 131.811 61.26C131.317 61.9133 130.671 62.4333 129.871 62.82C129.071 63.1933 128.104 63.38 126.971 63.38ZM126.971 60.78C128.157 60.78 129.031 60.3733 129.591 59.56C130.151 58.7333 130.431 57.4533 130.431 55.72C130.431 53.88 130.144 52.5667 129.571 51.78C128.997 50.98 128.131 50.58 126.971 50.58C125.797 50.58 124.917 50.98 124.331 51.78C123.757 52.5667 123.471 53.8667 123.471 55.68C123.471 57.4267 123.757 58.7133 124.331 59.54C124.904 60.3667 125.784 60.78 126.971 60.78ZM142.088 63.38C140.941 63.38 139.968 63.1933 139.168 62.82C138.368 62.4333 137.714 61.9133 137.208 61.26C136.701 60.5933 136.328 59.8333 136.088 58.98C135.861 58.1133 135.748 57.2067 135.748 56.26V55.14C135.748 53.7933 135.974 52.58 136.428 51.5C136.881 50.42 137.574 49.5667 138.508 48.94C139.441 48.3 140.634 47.98 142.088 47.98C143.528 47.98 144.714 48.3 145.648 48.94C146.581 49.5667 147.268 50.42 147.708 51.5C148.161 52.58 148.388 53.7933 148.388 55.14V56.26C148.388 57.2067 148.268 58.1133 148.028 58.98C147.801 59.8333 147.434 60.5933 146.928 61.26C146.434 61.9133 145.788 62.4333 144.988 62.82C144.188 63.1933 143.221 63.38 142.088 63.38ZM142.088 60.78C143.274 60.78 144.148 60.3733 144.708 59.56C145.268 58.7333 145.548 57.4533 145.548 55.72C145.548 53.88 145.261 52.5667 144.688 51.78C144.114 50.98 143.248 50.58 142.088 50.58C140.914 50.58 140.034 50.98 139.448 51.78C138.874 52.5667 138.588 53.8667 138.588 55.68C138.588 57.4267 138.874 58.7133 139.448 59.54C140.021 60.3667 140.901 60.78 142.088 60.78Z" fill="white"/>
<path d="M28.382 37.098C28.214 37.098 28.0787 37.056 27.976 36.972C27.8733 36.8787 27.7893 36.7433 27.724 36.566L24.63 27.732C24.5647 27.536 24.5787 27.3727 24.672 27.242C24.7747 27.102 24.9333 27.032 25.148 27.032C25.3067 27.032 25.4327 27.074 25.526 27.158C25.6193 27.2327 25.6987 27.354 25.764 27.522L28.662 36.02H28.172L31.126 27.564C31.1913 27.3867 31.2707 27.256 31.364 27.172C31.4573 27.0787 31.5833 27.032 31.742 27.032C31.8913 27.032 32.008 27.0787 32.092 27.172C32.1853 27.256 32.2647 27.3867 32.33 27.564L35.242 36.02H34.808L37.734 27.522C37.7807 27.3633 37.8507 27.242 37.944 27.158C38.0467 27.074 38.1773 27.032 38.336 27.032C38.532 27.032 38.6767 27.0973 38.77 27.228C38.8633 27.3587 38.8727 27.5267 38.798 27.732L35.69 36.566C35.6247 36.7433 35.5407 36.8787 35.438 36.972C35.3447 37.056 35.2093 37.098 35.032 37.098C34.864 37.098 34.7287 37.056 34.626 36.972C34.5327 36.8787 34.4487 36.7433 34.374 36.566L31.56 28.46H31.868L29.026 36.566C28.9607 36.7433 28.8813 36.8787 28.788 36.972C28.6947 37.056 28.5593 37.098 28.382 37.098ZM41.8212 37.126C41.3546 37.126 40.9346 37.0373 40.5612 36.86C40.1972 36.6733 39.9079 36.4213 39.6932 36.104C39.4786 35.7867 39.3712 35.432 39.3712 35.04C39.3712 34.536 39.4972 34.1393 39.7492 33.85C40.0106 33.5607 40.4352 33.3553 41.0232 33.234C41.6206 33.1127 42.4326 33.052 43.4592 33.052H44.0892V33.794H43.4732C42.7172 33.794 42.1199 33.8313 41.6812 33.906C41.2519 33.9713 40.9486 34.088 40.7712 34.256C40.6032 34.424 40.5192 34.662 40.5192 34.97C40.5192 35.3527 40.6499 35.6653 40.9112 35.908C41.1819 36.1507 41.5459 36.272 42.0032 36.272C42.3766 36.272 42.7032 36.1833 42.9832 36.006C43.2726 35.8287 43.4966 35.586 43.6552 35.278C43.8232 34.97 43.9072 34.6153 43.9072 34.214V32.618C43.9072 32.0393 43.7906 31.624 43.5572 31.372C43.3239 31.1107 42.9412 30.98 42.4092 30.98C42.0826 30.98 41.7559 31.022 41.4292 31.106C41.1026 31.19 40.7572 31.3253 40.3932 31.512C40.2626 31.5773 40.1506 31.6007 40.0572 31.582C39.9639 31.554 39.8892 31.5027 39.8332 31.428C39.7772 31.3533 39.7446 31.2693 39.7352 31.176C39.7259 31.0733 39.7446 30.9753 39.7912 30.882C39.8472 30.7887 39.9312 30.714 40.0432 30.658C40.4539 30.4527 40.8599 30.3033 41.2612 30.21C41.6626 30.1167 42.0452 30.07 42.4092 30.07C42.9972 30.07 43.4826 30.168 43.8652 30.364C44.2479 30.5507 44.5326 30.84 44.7192 31.232C44.9059 31.6147 44.9992 32.1093 44.9992 32.716V36.51C44.9992 36.6967 44.9526 36.8413 44.8592 36.944C44.7752 37.0467 44.6492 37.098 44.4812 37.098C44.3039 37.098 44.1686 37.0467 44.0752 36.944C43.9819 36.8413 43.9352 36.6967 43.9352 36.51V35.418H44.0612C43.9866 35.7727 43.8419 36.076 43.6272 36.328C43.4219 36.58 43.1652 36.776 42.8572 36.916C42.5492 37.056 42.2039 37.126 41.8212 37.126ZM49.1751 37.126C48.5031 37.126 47.9897 36.9207 47.6351 36.51C47.2804 36.0993 47.1031 35.5113 47.1031 34.746V27.606C47.1031 27.4193 47.1497 27.2793 47.2431 27.186C47.3364 27.0833 47.4764 27.032 47.6631 27.032C47.8404 27.032 47.9804 27.0833 48.0831 27.186C48.1857 27.2793 48.2371 27.4193 48.2371 27.606V34.662C48.2371 35.166 48.3351 35.544 48.5311 35.796C48.7364 36.0387 49.0351 36.16 49.4271 36.16C49.5111 36.16 49.5857 36.1553 49.6511 36.146C49.7164 36.1367 49.7817 36.132 49.8471 36.132C49.9497 36.1227 50.0197 36.146 50.0571 36.202C50.1037 36.258 50.1271 36.37 50.1271 36.538C50.1271 36.706 50.0897 36.832 50.0151 36.916C49.9404 37 49.8191 37.056 49.6511 37.084C49.5764 37.0933 49.4971 37.1027 49.4131 37.112C49.3291 37.1213 49.2497 37.126 49.1751 37.126ZM53.3176 37.126C52.6456 37.126 52.1323 36.9207 51.7776 36.51C51.423 36.0993 51.2456 35.5113 51.2456 34.746V27.606C51.2456 27.4193 51.2923 27.2793 51.3856 27.186C51.479 27.0833 51.619 27.032 51.8056 27.032C51.983 27.032 52.123 27.0833 52.2256 27.186C52.3283 27.2793 52.3796 27.4193 52.3796 27.606V34.662C52.3796 35.166 52.4776 35.544 52.6736 35.796C52.879 36.0387 53.1776 36.16 53.5696 36.16C53.6536 36.16 53.7283 36.1553 53.7936 36.146C53.859 36.1367 53.9243 36.132 53.9896 36.132C54.0923 36.1227 54.1623 36.146 54.1996 36.202C54.2463 36.258 54.2696 36.37 54.2696 36.538C54.2696 36.706 54.2323 36.832 54.1576 36.916C54.083 37 53.9616 37.056 53.7936 37.084C53.719 37.0933 53.6396 37.1027 53.5556 37.112C53.4716 37.1213 53.3923 37.126 53.3176 37.126ZM58.3859 37.126C57.6672 37.126 57.0465 36.986 56.5239 36.706C56.0105 36.4167 55.6092 36.0107 55.3199 35.488C55.0399 34.9653 54.8999 34.34 54.8999 33.612C54.8999 32.9027 55.0399 32.2867 55.3199 31.764C55.5999 31.232 55.9825 30.8167 56.4679 30.518C56.9625 30.2193 57.5319 30.07 58.1759 30.07C58.6332 30.07 59.0439 30.1493 59.4079 30.308C59.7719 30.4573 60.0799 30.6767 60.3319 30.966C60.5932 31.2553 60.7892 31.6053 60.9199 32.016C61.0599 32.4267 61.1299 32.8887 61.1299 33.402C61.1299 33.5513 61.0879 33.6633 61.0039 33.738C60.9199 33.8033 60.7985 33.836 60.6399 33.836H55.7679V33.094H60.3739L60.1499 33.276C60.1499 32.772 60.0752 32.3473 59.9259 32.002C59.7765 31.6473 59.5572 31.3767 59.2679 31.19C58.9879 31.0033 58.6332 30.91 58.2039 30.91C57.7279 30.91 57.3219 31.022 56.9859 31.246C56.6592 31.4607 56.4119 31.764 56.2439 32.156C56.0759 32.5387 55.9919 32.9867 55.9919 33.5V33.584C55.9919 34.4427 56.1972 35.096 56.6079 35.544C57.0279 35.992 57.6205 36.216 58.3859 36.216C58.7032 36.216 59.0159 36.174 59.3239 36.09C59.6412 36.006 59.9492 35.866 60.2479 35.67C60.3785 35.586 60.4952 35.5487 60.5979 35.558C60.7099 35.558 60.7985 35.5907 60.8639 35.656C60.9292 35.712 60.9712 35.7867 60.9899 35.88C61.0179 35.964 61.0085 36.0573 60.9619 36.16C60.9245 36.2627 60.8452 36.3513 60.7239 36.426C60.4159 36.65 60.0519 36.8227 59.6319 36.944C59.2119 37.0653 58.7965 37.126 58.3859 37.126ZM65.501 37.126C64.969 37.126 64.521 37.0327 64.157 36.846C63.8024 36.65 63.5364 36.37 63.359 36.006C63.1817 35.6327 63.093 35.18 63.093 34.648V31.078H62.155C61.9964 31.078 61.875 31.0407 61.791 30.966C61.707 30.882 61.665 30.77 61.665 30.63C61.665 30.49 61.707 30.3827 61.791 30.308C61.875 30.2333 61.9964 30.196 62.155 30.196H63.093V28.586C63.093 28.3993 63.1444 28.2593 63.247 28.166C63.3497 28.0633 63.4897 28.012 63.667 28.012C63.8444 28.012 63.9797 28.0633 64.073 28.166C64.1757 28.2593 64.227 28.3993 64.227 28.586V30.196H65.991C66.1497 30.196 66.271 30.2333 66.355 30.308C66.439 30.3827 66.481 30.49 66.481 30.63C66.481 30.77 66.439 30.882 66.355 30.966C66.271 31.0407 66.1497 31.078 65.991 31.078H64.227V34.536C64.227 35.068 64.339 35.474 64.563 35.754C64.787 36.0247 65.151 36.16 65.655 36.16C65.8324 36.16 65.9817 36.1413 66.103 36.104C66.2337 36.0667 66.341 36.048 66.425 36.048C66.509 36.0387 66.579 36.0667 66.635 36.132C66.691 36.1973 66.719 36.3093 66.719 36.468C66.719 36.58 66.6957 36.6827 66.649 36.776C66.6117 36.8693 66.5417 36.9347 66.439 36.972C66.327 37.0093 66.1777 37.042 65.991 37.07C65.8137 37.1073 65.6504 37.126 65.501 37.126ZM72.0589 37C71.8536 37 71.6949 36.9487 71.5829 36.846C71.4803 36.734 71.4289 36.5753 71.4289 36.37V27.76C71.4289 27.5547 71.4803 27.4007 71.5829 27.298C71.6949 27.186 71.8536 27.13 72.0589 27.13H75.3769C76.0583 27.13 76.6323 27.2327 77.0989 27.438C77.5749 27.634 77.9389 27.9233 78.1909 28.306C78.4429 28.6887 78.5689 29.1553 78.5689 29.706C78.5689 30.322 78.3869 30.8353 78.0229 31.246C77.6683 31.6567 77.1829 31.9273 76.5669 32.058V31.862C77.2669 31.946 77.8129 32.198 78.2049 32.618C78.6063 33.038 78.8069 33.5933 78.8069 34.284C78.8069 35.1613 78.5223 35.8333 77.9529 36.3C77.3836 36.7667 76.5809 37 75.5449 37H72.0589ZM72.5489 36.076H75.4329C76.1796 36.076 76.7396 35.9267 77.1129 35.628C77.4863 35.3293 77.6729 34.8767 77.6729 34.27C77.6729 33.654 77.4863 33.2013 77.1129 32.912C76.7396 32.6133 76.1796 32.464 75.4329 32.464H72.5489V36.076ZM72.5489 31.54H75.2089C75.9369 31.54 76.4876 31.3907 76.8609 31.092C77.2436 30.7933 77.4349 30.364 77.4349 29.804C77.4349 29.2253 77.2436 28.7913 76.8609 28.502C76.4876 28.2033 75.9369 28.054 75.2089 28.054H72.5489V31.54ZM82.8779 37.126C82.4112 37.126 81.9912 37.0373 81.6179 36.86C81.2539 36.6733 80.9645 36.4213 80.7499 36.104C80.5352 35.7867 80.4279 35.432 80.4279 35.04C80.4279 34.536 80.5539 34.1393 80.8059 33.85C81.0672 33.5607 81.4919 33.3553 82.0799 33.234C82.6772 33.1127 83.4892 33.052 84.5159 33.052H85.1459V33.794H84.5299C83.7739 33.794 83.1765 33.8313 82.7379 33.906C82.3085 33.9713 82.0052 34.088 81.8279 34.256C81.6599 34.424 81.5759 34.662 81.5759 34.97C81.5759 35.3527 81.7065 35.6653 81.9679 35.908C82.2385 36.1507 82.6025 36.272 83.0599 36.272C83.4332 36.272 83.7599 36.1833 84.0399 36.006C84.3292 35.8287 84.5532 35.586 84.7119 35.278C84.8799 34.97 84.9639 34.6153 84.9639 34.214V32.618C84.9639 32.0393 84.8472 31.624 84.6139 31.372C84.3805 31.1107 83.9979 30.98 83.4659 30.98C83.1392 30.98 82.8125 31.022 82.4859 31.106C82.1592 31.19 81.8139 31.3253 81.4499 31.512C81.3192 31.5773 81.2072 31.6007 81.1139 31.582C81.0205 31.554 80.9459 31.5027 80.8899 31.428C80.8339 31.3533 80.8012 31.2693 80.7919 31.176C80.7825 31.0733 80.8012 30.9753 80.8479 30.882C80.9039 30.7887 80.9879 30.714 81.0999 30.658C81.5105 30.4527 81.9165 30.3033 82.3179 30.21C82.7192 30.1167 83.1019 30.07 83.4659 30.07C84.0539 30.07 84.5392 30.168 84.9219 30.364C85.3045 30.5507 85.5892 30.84 85.7759 31.232C85.9625 31.6147 86.0559 32.1093 86.0559 32.716V36.51C86.0559 36.6967 86.0092 36.8413 85.9159 36.944C85.8319 37.0467 85.7059 37.098 85.5379 37.098C85.3605 37.098 85.2252 37.0467 85.1319 36.944C85.0385 36.8413 84.9919 36.6967 84.9919 36.51V35.418H85.1179C85.0432 35.7727 84.8985 36.076 84.6839 36.328C84.4785 36.58 84.2219 36.776 83.9139 36.916C83.6059 37.056 83.2605 37.126 82.8779 37.126ZM90.2317 37.126C89.5597 37.126 89.0464 36.9207 88.6917 36.51C88.337 36.0993 88.1597 35.5113 88.1597 34.746V27.606C88.1597 27.4193 88.2064 27.2793 88.2997 27.186C88.393 27.0833 88.533 27.032 88.7197 27.032C88.897 27.032 89.037 27.0833 89.1397 27.186C89.2424 27.2793 89.2937 27.4193 89.2937 27.606V34.662C89.2937 35.166 89.3917 35.544 89.5877 35.796C89.793 36.0387 90.0917 36.16 90.4837 36.16C90.5677 36.16 90.6424 36.1553 90.7077 36.146C90.773 36.1367 90.8384 36.132 90.9037 36.132C91.0064 36.1227 91.0764 36.146 91.1137 36.202C91.1604 36.258 91.1837 36.37 91.1837 36.538C91.1837 36.706 91.1464 36.832 91.0717 36.916C90.997 37 90.8757 37.056 90.7077 37.084C90.633 37.0933 90.5537 37.1027 90.4697 37.112C90.3857 37.1213 90.3064 37.126 90.2317 37.126ZM94.4443 37.126C93.9776 37.126 93.5576 37.0373 93.1843 36.86C92.8203 36.6733 92.5309 36.4213 92.3163 36.104C92.1016 35.7867 91.9943 35.432 91.9943 35.04C91.9943 34.536 92.1203 34.1393 92.3723 33.85C92.6336 33.5607 93.0583 33.3553 93.6463 33.234C94.2436 33.1127 95.0556 33.052 96.0823 33.052H96.7123V33.794H96.0963C95.3403 33.794 94.7429 33.8313 94.3043 33.906C93.8749 33.9713 93.5716 34.088 93.3943 34.256C93.2263 34.424 93.1423 34.662 93.1423 34.97C93.1423 35.3527 93.2729 35.6653 93.5343 35.908C93.8049 36.1507 94.1689 36.272 94.6263 36.272C94.9996 36.272 95.3263 36.1833 95.6063 36.006C95.8956 35.8287 96.1196 35.586 96.2783 35.278C96.4463 34.97 96.5303 34.6153 96.5303 34.214V32.618C96.5303 32.0393 96.4136 31.624 96.1803 31.372C95.9469 31.1107 95.5643 30.98 95.0323 30.98C94.7056 30.98 94.3789 31.022 94.0523 31.106C93.7256 31.19 93.3803 31.3253 93.0163 31.512C92.8856 31.5773 92.7736 31.6007 92.6803 31.582C92.5869 31.554 92.5123 31.5027 92.4563 31.428C92.4003 31.3533 92.3676 31.2693 92.3583 31.176C92.3489 31.0733 92.3676 30.9753 92.4143 30.882C92.4703 30.7887 92.5543 30.714 92.6663 30.658C93.0769 30.4527 93.4829 30.3033 93.8843 30.21C94.2856 30.1167 94.6683 30.07 95.0323 30.07C95.6203 30.07 96.1056 30.168 96.4883 30.364C96.8709 30.5507 97.1556 30.84 97.3423 31.232C97.5289 31.6147 97.6223 32.1093 97.6223 32.716V36.51C97.6223 36.6967 97.5756 36.8413 97.4823 36.944C97.3983 37.0467 97.2723 37.098 97.1043 37.098C96.9269 37.098 96.7916 37.0467 96.6983 36.944C96.6049 36.8413 96.5583 36.6967 96.5583 36.51V35.418H96.6843C96.6096 35.7727 96.4649 36.076 96.2503 36.328C96.0449 36.58 95.7883 36.776 95.4803 36.916C95.1723 37.056 94.8269 37.126 94.4443 37.126ZM100.286 37.098C100.099 37.098 99.9594 37.0467 99.8661 36.944C99.7728 36.8413 99.7261 36.6967 99.7261 36.51V30.672C99.7261 30.4853 99.7728 30.3453 99.8661 30.252C99.9594 30.1493 100.095 30.098 100.272 30.098C100.449 30.098 100.585 30.1493 100.678 30.252C100.781 30.3453 100.832 30.4853 100.832 30.672V31.876L100.678 31.708C100.874 31.1667 101.191 30.7607 101.63 30.49C102.078 30.21 102.591 30.07 103.17 30.07C103.711 30.07 104.159 30.168 104.514 30.364C104.878 30.56 105.149 30.8587 105.326 31.26C105.503 31.652 105.592 32.1513 105.592 32.758V36.51C105.592 36.6967 105.541 36.8413 105.438 36.944C105.345 37.0467 105.209 37.098 105.032 37.098C104.845 37.098 104.701 37.0467 104.598 36.944C104.505 36.8413 104.458 36.6967 104.458 36.51V32.828C104.458 32.1933 104.332 31.7313 104.08 31.442C103.837 31.1433 103.445 30.994 102.904 30.994C102.279 30.994 101.779 31.19 101.406 31.582C101.042 31.9647 100.86 32.478 100.86 33.122V36.51C100.86 36.902 100.669 37.098 100.286 37.098ZM110.567 37.126C109.886 37.126 109.298 36.9767 108.803 36.678C108.308 36.3793 107.926 35.964 107.655 35.432C107.394 34.8907 107.263 34.2653 107.263 33.556C107.263 33.0147 107.338 32.5293 107.487 32.1C107.636 31.6707 107.856 31.3067 108.145 31.008C108.434 30.7 108.78 30.4667 109.181 30.308C109.592 30.1493 110.054 30.07 110.567 30.07C110.903 30.07 111.253 30.1213 111.617 30.224C111.981 30.3267 112.312 30.504 112.611 30.756C112.704 30.8213 112.765 30.9007 112.793 30.994C112.821 31.0873 112.821 31.1807 112.793 31.274C112.765 31.358 112.718 31.4327 112.653 31.498C112.588 31.554 112.504 31.5867 112.401 31.596C112.308 31.6053 112.21 31.5727 112.107 31.498C111.864 31.3113 111.617 31.1807 111.365 31.106C111.113 31.0313 110.87 30.994 110.637 30.994C110.273 30.994 109.956 31.0547 109.685 31.176C109.414 31.288 109.186 31.4513 108.999 31.666C108.812 31.8807 108.668 32.1467 108.565 32.464C108.472 32.7813 108.425 33.15 108.425 33.57C108.425 34.382 108.616 35.026 108.999 35.502C109.382 35.9687 109.928 36.202 110.637 36.202C110.87 36.202 111.108 36.1647 111.351 36.09C111.603 36.0153 111.855 35.8847 112.107 35.698C112.21 35.6233 112.308 35.5907 112.401 35.6C112.494 35.6093 112.574 35.6467 112.639 35.712C112.704 35.768 112.746 35.8427 112.765 35.936C112.793 36.0293 112.793 36.1227 112.765 36.216C112.737 36.3 112.676 36.3747 112.583 36.44C112.284 36.6827 111.958 36.86 111.603 36.972C111.248 37.0747 110.903 37.126 110.567 37.126ZM117.093 37.126C116.374 37.126 115.754 36.986 115.231 36.706C114.718 36.4167 114.316 36.0107 114.027 35.488C113.747 34.9653 113.607 34.34 113.607 33.612C113.607 32.9027 113.747 32.2867 114.027 31.764C114.307 31.232 114.69 30.8167 115.175 30.518C115.67 30.2193 116.239 30.07 116.883 30.07C117.34 30.07 117.751 30.1493 118.115 30.308C118.479 30.4573 118.787 30.6767 119.039 30.966C119.3 31.2553 119.496 31.6053 119.627 32.016C119.767 32.4267 119.837 32.8887 119.837 33.402C119.837 33.5513 119.795 33.6633 119.711 33.738C119.627 33.8033 119.506 33.836 119.347 33.836H114.475V33.094H119.081L118.857 33.276C118.857 32.772 118.782 32.3473 118.633 32.002C118.484 31.6473 118.264 31.3767 117.975 31.19C117.695 31.0033 117.34 30.91 116.911 30.91C116.435 30.91 116.029 31.022 115.693 31.246C115.366 31.4607 115.119 31.764 114.951 32.156C114.783 32.5387 114.699 32.9867 114.699 33.5V33.584C114.699 34.4427 114.904 35.096 115.315 35.544C115.735 35.992 116.328 36.216 117.093 36.216C117.41 36.216 117.723 36.174 118.031 36.09C118.348 36.006 118.656 35.866 118.955 35.67C119.086 35.586 119.202 35.5487 119.305 35.558C119.417 35.558 119.506 35.5907 119.571 35.656C119.636 35.712 119.678 35.7867 119.697 35.88C119.725 35.964 119.716 36.0573 119.669 36.16C119.632 36.2627 119.552 36.3513 119.431 36.426C119.123 36.65 118.759 36.8227 118.339 36.944C117.919 37.0653 117.504 37.126 117.093 37.126Z" fill="#CDCDCD"/>
</g>
<defs>
<filter id="filter0_d_1_2314" x="161.54" y="-72.2834" width="88.145" height="134.208" filterUnits="userSpaceOnUse" color-interpolation-filters="sRGB">
<feFlood flood-opacity="0" result="BackgroundImageFix"/>
<feColorMatrix in="SourceAlpha" type="matrix" values="0 0 0 0 0 0 0 0 0 0 0 0 0 0 0 0 0 0 127 0" result="hardAlpha"/>
<feOffset dy="4"/>
<feGaussianBlur stdDeviation="2"/>
<feComposite in2="hardAlpha" operator="out"/>
<feColorMatrix type="matrix" values="0 0 0 0 0.0117647 0 0 0 0 0.133333 0 0 0 0 0.509804 0 0 0 1 0"/>
<feBlend mode="normal" in2="BackgroundImageFix" result="effect1_dropShadow_1_2314"/>
<feBlend mode="normal" in="SourceGraphic" in2="effect1_dropShadow_1_2314" result="shape"/>
</filter>
<filter id="filter1_d_1_2314" x="111.54" y="-22.2831" width="69.7674" height="81.5521" filterUnits="userSpaceOnUse" color-interpolation-filters="sRGB">
<feFlood flood-opacity="0" result="BackgroundImageFix"/>
<feColorMatrix in="SourceAlpha" type="matrix" values="0 0 0 0 0 0 0 0 0 0 0 0 0 0 0 0 0 0 127 0" result="hardAlpha"/>
<feOffset dy="4"/>
<feGaussianBlur stdDeviation="2"/>
<feComposite in2="hardAlpha" operator="out"/>
<feColorMatrix type="matrix" values="0 0 0 0 0.0117647 0 0 0 0 0.133333 0 0 0 0 0.509804 0 0 0 1 0"/>
<feBlend mode="normal" in2="BackgroundImageFix" result="effect1_dropShadow_1_2314"/>
<feBlend mode="normal" in="SourceGraphic" in2="effect1_dropShadow_1_2314" result="shape"/>
</filter>
<filter id="filter2_d_1_2314" x="218.54" y="84.7161" width="69.7674" height="81.5521" filterUnits="userSpaceOnUse" color-interpolation-filters="sRGB">
<feFlood flood-opacity="0" result="BackgroundImageFix"/>
<feColorMatrix in="SourceAlpha" type="matrix" values="0 0 0 0 0 0 0 0 0 0 0 0 0 0 0 0 0 0 127 0" result="hardAlpha"/>
<feOffset dy="4"/>
<feGaussianBlur stdDeviation="2"/>
<feComposite in2="hardAlpha" operator="out"/>
<feColorMatrix type="matrix" values="0 0 0 0 0.0117647 0 0 0 0 0.133333 0 0 0 0 0.509804 0 0 0 1 0"/>
<feBlend mode="normal" in2="BackgroundImageFix" result="effect1_dropShadow_1_2314"/>
<feBlend mode="normal" in="SourceGraphic" in2="effect1_dropShadow_1_2314" result="shape"/>
</filter>
<linearGradient id="paint0_linear_1_2314" x1="25.4889" y1="0" x2="25.4889" y2="82.7358" gradientUnits="userSpaceOnUse">
<stop stop-color="white"/>
<stop offset="1" stop-color="white" stop-opacity="0"/>
</linearGradient>
<linearGradient id="paint1_linear_1_2314" x1="25.476" y1="0" x2="25.476" y2="109.9" gradientUnits="userSpaceOnUse">
<stop stop-color="white"/>
<stop offset="1" stop-color="white" stop-opacity="0"/>
</linearGradient>
<linearGradient id="paint2_linear_1_2314" x1="25.476" y1="0" x2="25.476" y2="54.1297" gradientUnits="userSpaceOnUse">
<stop stop-color="white"/>
<stop offset="1" stop-color="white" stop-opacity="0"/>
</linearGradient>
<linearGradient id="paint3_linear_1_2314" x1="25.476" y1="0" x2="25.476" y2="54.1297" gradientUnits="userSpaceOnUse">
<stop stop-color="white"/>
<stop offset="1" stop-color="white" stop-opacity="0"/>
</linearGradient>
<clipPath id="clip0_1_2314">
<rect width="289" height="151" fill="white"/>
</clipPath>
</defs>
</svg>
