<svg width="218" height="221" viewBox="0 0 218 221" fill="none" xmlns="http://www.w3.org/2000/svg">
<path d="M154.602 57.7244C156.175 56.1728 158.716 56.183 160.181 57.8369C171.306 70.4 177.854 86.3945 178.658 103.166C179.462 119.923 174.48 136.349 164.617 149.716C163.304 151.496 160.768 151.727 159.066 150.313L148.284 141.358C146.587 139.948 146.366 137.439 147.634 135.633C154.077 126.456 157.313 115.341 156.769 104.011C156.225 92.6714 151.93 81.839 144.62 73.1885C143.194 71.5011 143.197 68.9777 144.77 67.4261L154.602 57.7244Z" fill="#EDE1FF"/>
<path d="M152.641 54.3862C154.178 52.8001 154.146 50.2583 152.478 48.8101C140.469 38.3855 125.339 32.1597 109.395 31.1531C92.1173 30.0624 75.0171 35.1725 61.1705 45.5643C47.3239 55.956 37.6395 70.9474 33.8594 87.842C30.3711 103.432 32.1217 119.699 38.776 134.142C39.7004 136.148 42.1319 136.89 44.0845 135.856L56.2932 129.396C58.2458 128.362 58.9751 125.947 58.0983 123.919C53.8461 114.086 52.7919 103.126 55.1459 92.6049C57.792 80.7786 64.571 70.2847 74.2637 63.0104C83.9563 55.7362 95.9264 52.1591 108.021 52.9227C118.78 53.6019 129.01 57.6765 137.263 64.5066C138.965 65.9151 141.488 65.8897 143.026 64.3036L152.641 54.3862Z" fill="#032282"/>
<path d="M45.8288 138.956C43.9323 140.089 43.3042 142.552 44.5397 144.383C49.9793 152.446 56.9895 159.347 65.1649 164.665C74.4596 170.712 85.0141 174.553 96.0212 175.894C107.028 177.235 118.196 176.04 128.671 172.402C137.884 169.202 146.346 164.186 153.562 157.665C155.201 156.184 155.183 153.642 153.614 152.087L143.804 142.363C142.235 140.808 139.712 140.833 138.038 142.275C133.188 146.454 127.584 149.689 121.514 151.797C114.182 154.344 106.364 155.18 98.6591 154.241C90.9542 153.302 83.566 150.614 77.0597 146.381C71.6733 142.877 67.0095 138.391 63.3049 133.17C62.0265 131.369 59.5833 130.739 57.6868 131.872L45.8288 138.956Z" fill="#F4BE37"/>
<g filter="url(#filter0_d_1_2300)">
<circle cx="178" cy="102" r="16" fill="white"/>
</g>
<path d="M168.55 105C168.41 105 168.3 104.96 168.22 104.88C168.14 104.8 168.1 104.693 168.1 104.56C168.1 104.42 168.14 104.313 168.22 104.24C168.3 104.167 168.41 104.13 168.55 104.13H169.77V98.81H170.29L168.83 99.74C168.723 99.8 168.623 99.8233 168.53 99.81C168.443 99.7967 168.367 99.76 168.3 99.7C168.24 99.64 168.197 99.5667 168.17 99.48C168.15 99.3933 168.157 99.3033 168.19 99.21C168.23 99.1167 168.3 99.04 168.4 98.98L169.78 98.11C169.893 98.0433 170 97.99 170.1 97.95C170.207 97.9033 170.307 97.88 170.4 97.88C170.513 97.88 170.607 97.9133 170.68 97.98C170.76 98.04 170.8 98.1433 170.8 98.29V104.13H171.92C172.067 104.13 172.18 104.167 172.26 104.24C172.34 104.313 172.38 104.42 172.38 104.56C172.38 104.7 172.34 104.81 172.26 104.89C172.18 104.963 172.067 105 171.92 105H168.55ZM174.306 105C174.126 105 173.996 104.96 173.916 104.88C173.836 104.793 173.796 104.677 173.796 104.53C173.796 104.437 173.819 104.347 173.866 104.26C173.913 104.173 173.979 104.083 174.066 103.99L176.196 101.71C176.523 101.363 176.756 101.047 176.896 100.76C177.043 100.467 177.116 100.173 177.116 99.88C177.116 99.5067 177.003 99.2233 176.776 99.03C176.549 98.8367 176.216 98.74 175.776 98.74C175.509 98.74 175.253 98.78 175.006 98.86C174.759 98.94 174.513 99.07 174.266 99.25C174.166 99.3167 174.073 99.3467 173.986 99.34C173.899 99.3333 173.823 99.3 173.756 99.24C173.696 99.18 173.656 99.1067 173.636 99.02C173.616 98.9333 173.619 98.8433 173.646 98.75C173.673 98.6567 173.736 98.5767 173.836 98.51C174.109 98.3033 174.426 98.1433 174.786 98.03C175.146 97.9167 175.513 97.86 175.886 97.86C176.373 97.86 176.783 97.9367 177.116 98.09C177.456 98.2367 177.713 98.4533 177.886 98.74C178.059 99.0267 178.146 99.3767 178.146 99.79C178.146 100.07 178.099 100.343 178.006 100.61C177.919 100.877 177.783 101.15 177.596 101.43C177.416 101.703 177.179 101.993 176.886 102.3L174.866 104.42V104.13H178.046C178.193 104.13 178.306 104.167 178.386 104.24C178.466 104.313 178.506 104.42 178.506 104.56C178.506 104.7 178.466 104.81 178.386 104.89C178.306 104.963 178.193 105 178.046 105H174.306ZM182.122 104.97C182.069 105.07 181.999 105.137 181.912 105.17C181.832 105.203 181.752 105.21 181.672 105.19C181.592 105.17 181.526 105.13 181.472 105.07C181.419 105.01 181.386 104.937 181.372 104.85C181.366 104.763 181.389 104.67 181.442 104.57L185.222 98C185.276 97.8933 185.342 97.8233 185.422 97.79C185.509 97.7567 185.589 97.75 185.662 97.77C185.742 97.79 185.809 97.83 185.862 97.89C185.922 97.95 185.959 98.0233 185.972 98.11C185.986 98.1967 185.962 98.29 185.902 98.39L182.122 104.97ZM181.232 102.17C180.686 102.17 180.259 101.98 179.952 101.6C179.646 101.213 179.492 100.683 179.492 100.01C179.492 99.5567 179.562 99.17 179.702 98.85C179.842 98.53 180.042 98.2867 180.302 98.12C180.562 97.9467 180.872 97.86 181.232 97.86C181.772 97.86 182.196 98.05 182.502 98.43C182.816 98.81 182.972 99.3367 182.972 100.01C182.972 100.457 182.902 100.843 182.762 101.17C182.629 101.49 182.432 101.737 182.172 101.91C181.912 102.083 181.599 102.17 181.232 102.17ZM181.232 101.46C181.419 101.46 181.579 101.407 181.712 101.3C181.846 101.193 181.946 101.033 182.012 100.82C182.086 100.607 182.122 100.337 182.122 100.01C182.122 99.5233 182.042 99.16 181.882 98.92C181.729 98.68 181.512 98.56 181.232 98.56C181.046 98.56 180.886 98.6133 180.752 98.72C180.619 98.8267 180.516 98.9867 180.442 99.2C180.376 99.4133 180.342 99.6833 180.342 100.01C180.342 100.503 180.419 100.87 180.572 101.11C180.732 101.343 180.952 101.46 181.232 101.46ZM186.122 105.09C185.582 105.09 185.159 104.9 184.852 104.52C184.546 104.14 184.392 103.61 184.392 102.93C184.392 102.483 184.459 102.1 184.592 101.78C184.732 101.46 184.932 101.213 185.192 101.04C185.452 100.867 185.762 100.78 186.122 100.78C186.669 100.78 187.096 100.973 187.402 101.36C187.709 101.74 187.862 102.263 187.862 102.93C187.862 103.383 187.792 103.773 187.652 104.1C187.519 104.42 187.322 104.667 187.062 104.84C186.802 105.007 186.489 105.09 186.122 105.09ZM186.122 104.39C186.309 104.39 186.469 104.337 186.602 104.23C186.736 104.123 186.836 103.963 186.902 103.75C186.976 103.53 187.012 103.257 187.012 102.93C187.012 102.45 186.932 102.09 186.772 101.85C186.619 101.61 186.402 101.49 186.122 101.49C185.942 101.49 185.782 101.543 185.642 101.65C185.509 101.757 185.406 101.917 185.332 102.13C185.266 102.343 185.232 102.61 185.232 102.93C185.232 103.423 185.312 103.79 185.472 104.03C185.632 104.27 185.849 104.39 186.122 104.39Z" fill="black"/>
<g filter="url(#filter1_d_1_2300)">
<circle cx="106" cy="173" r="16" fill="white"/>
</g>
<path d="M96.55 176C96.41 176 96.3 175.96 96.22 175.88C96.14 175.8 96.1 175.693 96.1 175.56C96.1 175.42 96.14 175.313 96.22 175.24C96.3 175.167 96.41 175.13 96.55 175.13H97.77V169.81H98.29L96.83 170.74C96.7233 170.8 96.6233 170.823 96.53 170.81C96.4433 170.797 96.3667 170.76 96.3 170.7C96.24 170.64 96.1967 170.567 96.17 170.48C96.15 170.393 96.1567 170.303 96.19 170.21C96.23 170.117 96.3 170.04 96.4 169.98L97.78 169.11C97.8933 169.043 98 168.99 98.1 168.95C98.2067 168.903 98.3067 168.88 98.4 168.88C98.5133 168.88 98.6067 168.913 98.68 168.98C98.76 169.04 98.8 169.143 98.8 169.29V175.13H99.92C100.067 175.13 100.18 175.167 100.26 175.24C100.34 175.313 100.38 175.42 100.38 175.56C100.38 175.7 100.34 175.81 100.26 175.89C100.18 175.963 100.067 176 99.92 176H96.55ZM102.306 176C102.126 176 101.996 175.96 101.916 175.88C101.836 175.793 101.796 175.677 101.796 175.53C101.796 175.437 101.819 175.347 101.866 175.26C101.913 175.173 101.979 175.083 102.066 174.99L104.196 172.71C104.523 172.363 104.756 172.047 104.896 171.76C105.043 171.467 105.116 171.173 105.116 170.88C105.116 170.507 105.003 170.223 104.776 170.03C104.549 169.837 104.216 169.74 103.776 169.74C103.509 169.74 103.253 169.78 103.006 169.86C102.759 169.94 102.513 170.07 102.266 170.25C102.166 170.317 102.073 170.347 101.986 170.34C101.899 170.333 101.823 170.3 101.756 170.24C101.696 170.18 101.656 170.107 101.636 170.02C101.616 169.933 101.619 169.843 101.646 169.75C101.673 169.657 101.736 169.577 101.836 169.51C102.109 169.303 102.426 169.143 102.786 169.03C103.146 168.917 103.513 168.86 103.886 168.86C104.373 168.86 104.783 168.937 105.116 169.09C105.456 169.237 105.713 169.453 105.886 169.74C106.059 170.027 106.146 170.377 106.146 170.79C106.146 171.07 106.099 171.343 106.006 171.61C105.919 171.877 105.783 172.15 105.596 172.43C105.416 172.703 105.179 172.993 104.886 173.3L102.866 175.42V175.13H106.046C106.193 175.13 106.306 175.167 106.386 175.24C106.466 175.313 106.506 175.42 106.506 175.56C106.506 175.7 106.466 175.81 106.386 175.89C106.306 175.963 106.193 176 106.046 176H102.306ZM110.122 175.97C110.069 176.07 109.999 176.137 109.912 176.17C109.832 176.203 109.752 176.21 109.672 176.19C109.592 176.17 109.526 176.13 109.472 176.07C109.419 176.01 109.386 175.937 109.372 175.85C109.366 175.763 109.389 175.67 109.442 175.57L113.222 169C113.276 168.893 113.342 168.823 113.422 168.79C113.509 168.757 113.589 168.75 113.662 168.77C113.742 168.79 113.809 168.83 113.862 168.89C113.922 168.95 113.959 169.023 113.972 169.11C113.986 169.197 113.962 169.29 113.902 169.39L110.122 175.97ZM109.232 173.17C108.686 173.17 108.259 172.98 107.952 172.6C107.646 172.213 107.492 171.683 107.492 171.01C107.492 170.557 107.562 170.17 107.702 169.85C107.842 169.53 108.042 169.287 108.302 169.12C108.562 168.947 108.872 168.86 109.232 168.86C109.772 168.86 110.196 169.05 110.502 169.43C110.816 169.81 110.972 170.337 110.972 171.01C110.972 171.457 110.902 171.843 110.762 172.17C110.629 172.49 110.432 172.737 110.172 172.91C109.912 173.083 109.599 173.17 109.232 173.17ZM109.232 172.46C109.419 172.46 109.579 172.407 109.712 172.3C109.846 172.193 109.946 172.033 110.012 171.82C110.086 171.607 110.122 171.337 110.122 171.01C110.122 170.523 110.042 170.16 109.882 169.92C109.729 169.68 109.512 169.56 109.232 169.56C109.046 169.56 108.886 169.613 108.752 169.72C108.619 169.827 108.516 169.987 108.442 170.2C108.376 170.413 108.342 170.683 108.342 171.01C108.342 171.503 108.419 171.87 108.572 172.11C108.732 172.343 108.952 172.46 109.232 172.46ZM114.122 176.09C113.582 176.09 113.159 175.9 112.852 175.52C112.546 175.14 112.392 174.61 112.392 173.93C112.392 173.483 112.459 173.1 112.592 172.78C112.732 172.46 112.932 172.213 113.192 172.04C113.452 171.867 113.762 171.78 114.122 171.78C114.669 171.78 115.096 171.973 115.402 172.36C115.709 172.74 115.862 173.263 115.862 173.93C115.862 174.383 115.792 174.773 115.652 175.1C115.519 175.42 115.322 175.667 115.062 175.84C114.802 176.007 114.489 176.09 114.122 176.09ZM114.122 175.39C114.309 175.39 114.469 175.337 114.602 175.23C114.736 175.123 114.836 174.963 114.902 174.75C114.976 174.53 115.012 174.257 115.012 173.93C115.012 173.45 114.932 173.09 114.772 172.85C114.619 172.61 114.402 172.49 114.122 172.49C113.942 172.49 113.782 172.543 113.642 172.65C113.509 172.757 113.406 172.917 113.332 173.13C113.266 173.343 113.232 173.61 113.232 173.93C113.232 174.423 113.312 174.79 113.472 175.03C113.632 175.27 113.849 175.39 114.122 175.39Z" fill="black"/>
<g filter="url(#filter2_d_1_2300)">
<circle cx="42" cy="74" r="18" fill="white"/>
</g>
<path d="M33.45 78.32C33.33 78.32 33.2267 78.2933 33.14 78.24C33.06 78.18 33.01 78.1 32.99 78C32.9767 77.8933 33 77.7767 33.06 77.65L36.19 71.68V72.07H32.75C32.6033 72.07 32.49 72.0333 32.41 71.96C32.33 71.88 32.29 71.7733 32.29 71.64C32.29 71.5 32.33 71.3933 32.41 71.32C32.49 71.24 32.6033 71.2 32.75 71.2H36.68C36.8267 71.2 36.9433 71.24 37.03 71.32C37.1233 71.3933 37.17 71.5 37.17 71.64C37.17 71.76 37.1533 71.8633 37.12 71.95C37.0933 72.0367 37.0533 72.1333 37 72.24L34.03 77.98C33.97 78.1 33.8933 78.1867 33.8 78.24C33.7067 78.2933 33.59 78.32 33.45 78.32ZM40.9961 78.34C40.4294 78.34 39.9461 78.2033 39.5461 77.93C39.1528 77.6567 38.8494 77.2633 38.6361 76.75C38.4294 76.23 38.3261 75.6067 38.3261 74.88C38.3261 74.2733 38.3928 73.7367 38.5261 73.27C38.6594 72.8033 38.8528 72.41 39.1061 72.09C39.3594 71.77 39.6661 71.5267 40.0261 71.36C40.3928 71.1933 40.8061 71.11 41.2661 71.11C41.5661 71.11 41.8728 71.1633 42.1861 71.27C42.4994 71.37 42.7861 71.5233 43.0461 71.73C43.1328 71.79 43.1861 71.8667 43.2061 71.96C43.2328 72.0467 43.2361 72.1333 43.2161 72.22C43.1961 72.3 43.1561 72.37 43.0961 72.43C43.0361 72.49 42.9594 72.5267 42.8661 72.54C42.7794 72.5467 42.6861 72.5167 42.5861 72.45C42.3594 72.2833 42.1328 72.1667 41.9061 72.1C41.6861 72.0267 41.4661 71.99 41.2461 71.99C40.8328 71.99 40.4828 72.09 40.1961 72.29C39.9094 72.49 39.6928 72.79 39.5461 73.19C39.3994 73.59 39.3261 74.0867 39.3261 74.68V75.53H39.2161C39.2628 75.17 39.3728 74.86 39.5461 74.6C39.7261 74.3333 39.9561 74.13 40.2361 73.99C40.5161 73.85 40.8261 73.78 41.1661 73.78C41.5794 73.78 41.9428 73.8767 42.2561 74.07C42.5761 74.2633 42.8261 74.53 43.0061 74.87C43.1861 75.2033 43.2761 75.5867 43.2761 76.02C43.2761 76.4667 43.1794 76.8667 42.9861 77.22C42.7928 77.5733 42.5228 77.85 42.1761 78.05C41.8361 78.2433 41.4428 78.34 40.9961 78.34ZM40.9361 77.5C41.2094 77.5 41.4494 77.44 41.6561 77.32C41.8628 77.2 42.0228 77.0333 42.1361 76.82C42.2494 76.6 42.3061 76.3467 42.3061 76.06C42.3061 75.7733 42.2494 75.5233 42.1361 75.31C42.0228 75.0967 41.8628 74.93 41.6561 74.81C41.4494 74.6833 41.2094 74.62 40.9361 74.62C40.6628 74.62 40.4228 74.6833 40.2161 74.81C40.0161 74.93 39.8561 75.0967 39.7361 75.31C39.6228 75.5233 39.5661 75.7733 39.5661 76.06C39.5661 76.3467 39.6228 76.6 39.7361 76.82C39.8561 77.0333 40.0161 77.2 40.2161 77.32C40.4228 77.44 40.6628 77.5 40.9361 77.5ZM46.8722 78.22C46.8189 78.32 46.7489 78.3867 46.6622 78.42C46.5822 78.4533 46.5022 78.46 46.4222 78.44C46.3422 78.42 46.2755 78.38 46.2222 78.32C46.1689 78.26 46.1355 78.1867 46.1222 78.1C46.1155 78.0133 46.1389 77.92 46.1922 77.82L49.9722 71.25C50.0255 71.1433 50.0922 71.0733 50.1722 71.04C50.2589 71.0067 50.3389 71 50.4122 71.02C50.4922 71.04 50.5589 71.08 50.6122 71.14C50.6722 71.2 50.7089 71.2733 50.7222 71.36C50.7355 71.4467 50.7122 71.54 50.6522 71.64L46.8722 78.22ZM45.9822 75.42C45.4355 75.42 45.0089 75.23 44.7022 74.85C44.3955 74.4633 44.2422 73.9333 44.2422 73.26C44.2422 72.8067 44.3122 72.42 44.4522 72.1C44.5922 71.78 44.7922 71.5367 45.0522 71.37C45.3122 71.1967 45.6222 71.11 45.9822 71.11C46.5222 71.11 46.9455 71.3 47.2522 71.68C47.5655 72.06 47.7222 72.5867 47.7222 73.26C47.7222 73.7067 47.6522 74.0933 47.5122 74.42C47.3789 74.74 47.1822 74.9867 46.9222 75.16C46.6622 75.3333 46.3489 75.42 45.9822 75.42ZM45.9822 74.71C46.1689 74.71 46.3289 74.6567 46.4622 74.55C46.5955 74.4433 46.6955 74.2833 46.7622 74.07C46.8355 73.8567 46.8722 73.5867 46.8722 73.26C46.8722 72.7733 46.7922 72.41 46.6322 72.17C46.4789 71.93 46.2622 71.81 45.9822 71.81C45.7955 71.81 45.6355 71.8633 45.5022 71.97C45.3689 72.0767 45.2655 72.2367 45.1922 72.45C45.1255 72.6633 45.0922 72.9333 45.0922 73.26C45.0922 73.7533 45.1689 74.12 45.3222 74.36C45.4822 74.5933 45.7022 74.71 45.9822 74.71ZM50.8722 78.34C50.3322 78.34 49.9089 78.15 49.6022 77.77C49.2955 77.39 49.1422 76.86 49.1422 76.18C49.1422 75.7333 49.2089 75.35 49.3422 75.03C49.4822 74.71 49.6822 74.4633 49.9422 74.29C50.2022 74.1167 50.5122 74.03 50.8722 74.03C51.4189 74.03 51.8455 74.2233 52.1522 74.61C52.4589 74.99 52.6122 75.5133 52.6122 76.18C52.6122 76.6333 52.5422 77.0233 52.4022 77.35C52.2689 77.67 52.0722 77.9167 51.8122 78.09C51.5522 78.2567 51.2389 78.34 50.8722 78.34ZM50.8722 77.64C51.0589 77.64 51.2189 77.5867 51.3522 77.48C51.4855 77.3733 51.5855 77.2133 51.6522 77C51.7255 76.78 51.7622 76.5067 51.7622 76.18C51.7622 75.7 51.6822 75.34 51.5222 75.1C51.3689 74.86 51.1522 74.74 50.8722 74.74C50.6922 74.74 50.5322 74.7933 50.3922 74.9C50.2589 75.0067 50.1555 75.1667 50.0822 75.38C50.0155 75.5933 49.9822 75.86 49.9822 76.18C49.9822 76.6733 50.0622 77.04 50.2222 77.28C50.3822 77.52 50.5989 77.64 50.8722 77.64Z" fill="black"/>
<defs>
<filter id="filter0_d_1_2300" x="138" y="70" width="80" height="80" filterUnits="userSpaceOnUse" color-interpolation-filters="sRGB">
<feFlood flood-opacity="0" result="BackgroundImageFix"/>
<feColorMatrix in="SourceAlpha" type="matrix" values="0 0 0 0 0 0 0 0 0 0 0 0 0 0 0 0 0 0 127 0" result="hardAlpha"/>
<feOffset dy="8"/>
<feGaussianBlur stdDeviation="12"/>
<feComposite in2="hardAlpha" operator="out"/>
<feColorMatrix type="matrix" values="0 0 0 0 0.568627 0 0 0 0 0.619608 0 0 0 0 0.670588 0 0 0 0.1 0"/>
<feBlend mode="normal" in2="BackgroundImageFix" result="effect1_dropShadow_1_2300"/>
<feBlend mode="normal" in="SourceGraphic" in2="effect1_dropShadow_1_2300" result="shape"/>
</filter>
<filter id="filter1_d_1_2300" x="66" y="141" width="80" height="80" filterUnits="userSpaceOnUse" color-interpolation-filters="sRGB">
<feFlood flood-opacity="0" result="BackgroundImageFix"/>
<feColorMatrix in="SourceAlpha" type="matrix" values="0 0 0 0 0 0 0 0 0 0 0 0 0 0 0 0 0 0 127 0" result="hardAlpha"/>
<feOffset dy="8"/>
<feGaussianBlur stdDeviation="12"/>
<feComposite in2="hardAlpha" operator="out"/>
<feColorMatrix type="matrix" values="0 0 0 0 0.568627 0 0 0 0 0.619608 0 0 0 0 0.670588 0 0 0 0.1 0"/>
<feBlend mode="normal" in2="BackgroundImageFix" result="effect1_dropShadow_1_2300"/>
<feBlend mode="normal" in="SourceGraphic" in2="effect1_dropShadow_1_2300" result="shape"/>
</filter>
<filter id="filter2_d_1_2300" x="0" y="40" width="84" height="84" filterUnits="userSpaceOnUse" color-interpolation-filters="sRGB">
<feFlood flood-opacity="0" result="BackgroundImageFix"/>
<feColorMatrix in="SourceAlpha" type="matrix" values="0 0 0 0 0 0 0 0 0 0 0 0 0 0 0 0 0 0 127 0" result="hardAlpha"/>
<feOffset dy="8"/>
<feGaussianBlur stdDeviation="12"/>
<feComposite in2="hardAlpha" operator="out"/>
<feColorMatrix type="matrix" values="0 0 0 0 0.568627 0 0 0 0 0.619608 0 0 0 0 0.670588 0 0 0 0.1 0"/>
<feBlend mode="normal" in2="BackgroundImageFix" result="effect1_dropShadow_1_2300"/>
<feBlend mode="normal" in="SourceGraphic" in2="effect1_dropShadow_1_2300" result="shape"/>
</filter>
</defs>
</svg>
